<svg data-v-423bf9ae="" xmlns="http://www.w3.org/2000/svg" viewBox="0 0 460 90" class="iconLeft"><!----><!----><!----><g data-v-423bf9ae="" id="8638edbe-12b7-4425-b1a5-1968bae347cf" fill="black" transform="matrix(6.197266839933274,0,0,6.197266839933274,124.41674721058178,12.68420726144744)"><path d="M6.50 1.13L1.12 1.13C0.92 1.13 0.81 1.41 0.81 1.72L0.81 9.63C0.81 10.19 2.44 10.19 2.44 9.63L2.44 6.22L5.38 6.22C5.94 6.22 5.94 4.77 5.38 4.77L2.45 4.77L2.45 2.58L5.80 2.58C6.45 2.58 7.15 1.13 6.50 1.13ZM10.78 1.04C8.83 1.04 7.88 1.43 7.88 1.78L7.88 9.63C7.88 10.19 9.52 10.18 9.52 9.63L9.52 7.14C10.18 7.29 10.74 7.36 11.24 7.36C13.55 7.36 14.43 5.88 14.43 4.27C14.43 2.18 13.09 1.04 10.78 1.04ZM10.95 6.05C10.56 6.05 10.08 5.98 9.52 5.84L9.52 2.63C9.93 2.51 10.37 2.45 10.81 2.45C12.10 2.45 12.77 3.08 12.77 4.26C12.77 5.28 12.29 6.05 10.95 6.05ZM21.28 1.13L15.90 1.13C15.71 1.13 15.60 1.41 15.60 1.72L15.60 9.63C15.60 10.19 17.22 10.19 17.22 9.63L17.22 6.22L20.16 6.22C20.72 6.22 20.72 4.77 20.16 4.77L17.23 4.77L17.23 2.58L20.58 2.58C21.24 2.58 21.94 1.13 21.28 1.13ZM31.57 8.53L27.64 8.53L27.64 1.20C27.64 0.55 26.01 1.25 26.01 1.90L26.01 9.35C26.01 9.65 26.10 9.95 26.32 9.95L31.57 9.95C32.12 9.95 32.12 8.53 31.57 8.53ZM39.54 8.48C39.42 8.53 39.33 8.54 39.23 8.54C38.96 8.54 38.82 8.33 38.82 7.76L38.82 6.03C38.82 4.05 37.73 3.37 36.02 3.37C34.61 3.37 33.78 3.65 33.19 4.14C32.73 4.51 32.83 5.56 33.31 5.26C33.88 4.93 34.65 4.69 35.52 4.69C36.69 4.69 37.18 5.08 37.18 6.24L37.18 6.31C36.75 6.09 36.11 5.95 35.21 5.95C33.71 5.95 32.75 6.76 32.75 8.01C32.75 9.25 33.66 10.05 35.06 10.05C36.13 10.05 36.89 9.66 37.35 9.24C37.58 9.81 38.00 10.02 38.49 10.02C38.82 10.02 39.19 9.93 39.54 9.79C40.14 9.53 40.14 8.26 39.54 8.48ZM35.50 8.75C34.69 8.75 34.40 8.37 34.40 7.97C34.40 7.55 34.72 7.15 35.59 7.15C36.40 7.15 36.93 7.29 37.18 7.48L37.18 8.04C36.93 8.34 36.37 8.75 35.50 8.75ZM44.70 3.37C43.85 3.37 43.06 3.64 42.49 4.12L42.49 0.66C42.49 0 40.85 0.60 40.85 1.26L40.85 9.66C40.85 10.19 42.06 10.15 42.21 9.76L42.42 9.20C42.99 9.72 43.81 10.04 44.70 10.04C46.20 10.04 47.19 8.72 47.19 6.69C47.19 4.70 46.20 3.37 44.70 3.37ZM43.99 8.61C43.44 8.61 42.92 8.37 42.49 7.92L42.49 5.46C42.94 5.04 43.44 4.82 43.99 4.82C45.02 4.80 45.56 5.46 45.56 6.69C45.56 7.97 45.02 8.62 43.99 8.61ZM49.91 5.29C49.91 4.84 50.58 4.58 51.45 4.58C52.16 4.58 53.00 4.76 53.75 5.15C54.17 5.39 54.12 4.07 53.72 3.88C53.03 3.54 52.18 3.37 51.34 3.37C49.76 3.37 48.27 3.98 48.27 5.33C48.27 6.80 49.81 7 51.03 7.20C51.84 7.32 52.51 7.43 52.51 7.92C52.51 8.46 51.80 8.75 50.89 8.75C50.16 8.75 49.32 8.57 48.59 8.18C48.15 7.97 48.22 9.35 48.61 9.55C49.29 9.87 50.19 10.05 51.06 10.05C52.64 10.05 54.15 9.42 54.15 7.95C54.15 6.34 52.60 6.16 51.37 5.98C50.57 5.87 49.91 5.75 49.91 5.29Z"></path></g><!----><g data-v-423bf9ae="" id="8f5c46a8-38ba-45f2-9156-f88e84d35a66" transform="matrix(1.251547129823528,0,0,1.251547129823528,-7.297983141696747,-15.218294616120772)" stroke="none" fill="black"><path d="M49.645 43.121a5.51 5.51 0 11-.002 11.02 5.51 5.51 0 01.002-11.02zM50 61.902c-21.194 0-43.72-4.609-43.72-13.152 0-8.542 22.525-13.151 43.72-13.151s43.721 4.609 43.721 13.151c0 8.543-22.528 13.152-43.721 13.152zm0-23.46c-23.395 0-40.876 5.442-40.876 10.308 0 4.865 17.481 10.309 40.876 10.309 23.396 0 40.876-5.442 40.876-10.309S73.396 38.442 50 38.442zm22.971 46.263c-7.287 0-21.055-11.533-33.479-28.045-12.744-16.937-22.604-37.708-15.778-42.845.9-.677 2.016-1.021 3.316-1.021 7.286 0 21.054 11.534 33.479 28.049 12.742 16.935 22.604 37.706 15.777 42.843-.901.677-2.015 1.019-3.315 1.019zM27.03 15.638c-.679 0-1.205.147-1.606.449-3.889 2.926 2.272 20.167 16.339 38.862 13.154 17.482 25.895 26.914 31.208 26.914.68 0 1.204-.148 1.605-.449 3.889-2.928-2.273-20.168-16.34-38.861C45.083 25.071 32.341 15.638 27.03 15.638zm-.429 68.717c-1.349 0-2.497-.359-3.413-1.07-6.747-5.24 3.425-25.859 16.421-42.6 12.59-16.215 26.484-27.54 33.788-27.54 1.35 0 2.498.361 3.412 1.071 6.748 5.238-3.425 25.858-16.42 42.601-12.59 16.214-26.483 27.538-33.788 27.538zm46.795-68.366c-5.338 0-18.207 9.267-31.542 26.44C27.51 60.908 21.089 78.055 24.932 81.037c.411.32.957.475 1.669.475 5.339 0 18.208-9.266 31.542-26.438C72.49 36.593 78.91 19.448 75.066 16.464c-.412-.32-.957-.475-1.67-.475z"></path></g><!----></svg>